# xmcd
#
# Track frame offsets: 
#        150
#        16645
#        31621
#        53408
#        73070
#        95529
#        109962
#        125994
#        142435
#        160958
#
# Disc length: 2333 seconds
#
# Revision: 0
# Processed by: cddbd v1.5.2PL0 Copyright (c) Steve Scherf et al.
# Submitted via: ExactAudioCopy v0.95b4
#
DISCID=89091b0a
DTITLE=Mary Sue Englund - Free
DYEAR=2007
DGENRE=Country
TTITLE0=Greatest Show on Earth
TTITLE1=Born to Run
TTITLE2=Free
TTITLE3=Until I Believed it Too
TTITLE4=Wings
TTITLE5=You Oughta be in Pictures
TTITLE6=Odds and Ends
TTITLE7=Stir it Up
TTITLE8=When You've Lost Your Way Home
TTITLE9=Long Way Down
EXTD=
EXTT0=
EXTT1=
EXTT2=
EXTT3=
EXTT4=
EXTT5=
EXTT6=
EXTT7=
EXTT8=
EXTT9=
PLAYORDER=
